<?xml version="1.0" encoding="UTF-8" standalone="no"?>
<!-- Created with Inkscape (http://www.inkscape.org/) -->

<svg
   xmlns:dc="http://purl.org/dc/elements/1.1/"
   xmlns:cc="http://creativecommons.org/ns#"
   xmlns:rdf="http://www.w3.org/1999/02/22-rdf-syntax-ns#"
   xmlns:svg="http://www.w3.org/2000/svg"
   xmlns="http://www.w3.org/2000/svg"
   xmlns:sodipodi="http://sodipodi.sourceforge.net/DTD/sodipodi-0.dtd"
   xmlns:inkscape="http://www.inkscape.org/namespaces/inkscape"
   id="svg2"
   version="1.1"
   inkscape:version="0.48.4 r9939"
   width="135"
   height="349.25751"
   xml:space="preserve"
   sodipodi:docname="head.svg"><metadata
     id="metadata8"><rdf:RDF><cc:Work
         rdf:about=""><dc:format>image/svg+xml</dc:format><dc:type
           rdf:resource="http://purl.org/dc/dcmitype/StillImage" /><dc:title></dc:title></cc:Work></rdf:RDF></metadata><defs
     id="defs6"><clipPath
       clipPathUnits="userSpaceOnUse"
       id="clipPath18"><path
         d="m 0,841.89 595.28,0 L 595.28,0 0,0 0,841.89 z"
         id="path20"
         inkscape:connector-curvature="0" /></clipPath><clipPath
       clipPathUnits="userSpaceOnUse"
       id="clipPath128"><path
         d="m 0,841.89 595.28,0 L 595.28,0 0,0 0,841.89 z"
         id="path130"
         inkscape:connector-curvature="0" /></clipPath><clipPath
       clipPathUnits="userSpaceOnUse"
       id="clipPath140"><path
         d="m 0,841.89 595.28,0 L 595.28,0 0,0 0,841.89 z"
         id="path142"
         inkscape:connector-curvature="0" /></clipPath></defs><sodipodi:namedview
     pagecolor="#ffffff"
     bordercolor="#666666"
     borderopacity="1"
     objecttolerance="10"
     gridtolerance="10"
     guidetolerance="10"
     inkscape:pageopacity="0"
     inkscape:pageshadow="2"
     inkscape:window-width="1920"
     inkscape:window-height="1003"
     id="namedview4"
     showgrid="false"
     inkscape:zoom="0.63429549"
     inkscape:cx="162.2253"
     inkscape:cy="106.41957"
     inkscape:window-x="-9"
     inkscape:window-y="-9"
     inkscape:window-maximized="1"
     inkscape:current-layer="g10"
     fit-margin-top="0"
     fit-margin-left="0"
     fit-margin-right="0"
     fit-margin-bottom="0" /><g
     id="g10"
     inkscape:groupmode="layer"
     inkscape:label="FIXME_Logo"
     transform="matrix(1.25,0,0,-1.25,-154.77456,788.31837)"><path
       d="m 351.072,562.122 -1.105,0 0,-5.544 1.105,0 0,5.544 z"
       style="fill:#ffffff;fill-opacity:1;fill-rule:nonzero;stroke:none"
       id="path118"
       inkscape:connector-curvature="0" /><path
       d="m 348.666,562.122 -1.773,0 0,-5.544 1.773,0 0,5.544 z"
       style="fill:#ffffff;fill-opacity:1;fill-rule:nonzero;stroke:none"
       id="path120"
       inkscape:connector-curvature="0" /><path
       d="m 345.651,562.122 -3.43,0 0,-5.544 3.43,0 0,5.544 z"
       style="fill:#ffffff;fill-opacity:1;fill-rule:nonzero;stroke:none"
       id="path122"
       inkscape:connector-curvature="0" /><g
       id="g124"><g
         id="g126"
         clip-path="url(#clipPath128)"><g
           id="g132"
           transform="translate(421.4434,544.5513)"><path
             d="m 0,0 c 1.026,0 1.858,-0.832 1.858,-1.858 0,-1.026 -0.832,-1.858 -1.858,-1.858 -1.025,0 -1.857,0.832 -1.857,1.858 C -1.857,-0.832 -1.025,0 0,0 m 11.418,-50.208 c 1.026,0 1.858,-0.832 1.858,-1.858 0,-1.026 -0.832,-1.858 -1.858,-1.858 -1.025,0 -1.857,0.832 -1.857,1.858 0,1.026 0.832,1.858 1.857,1.858 m 10.874,-9.417 c 1.026,0 1.858,-0.832 1.858,-1.858 0,-1.026 -0.832,-1.858 -1.858,-1.858 -1.025,0 -1.857,0.832 -1.857,1.858 0,1.026 0.832,1.858 1.857,1.858 m -36.208,-8.396 c 1.026,0 1.858,-0.832 1.858,-1.858 0,-1.026 -0.832,-1.858 -1.858,-1.858 -1.025,0 -1.857,0.832 -1.857,1.858 0,1.026 0.832,1.858 1.857,1.858 m -38.787,-29.213 c 1.026,0 1.858,-0.832 1.858,-1.858 0,-1.027 -0.832,-1.859 -1.858,-1.859 -1.026,0 -1.858,0.832 -1.858,1.859 0,1.026 0.832,1.858 1.858,1.858 m 26.953,-21.141 c 1.026,0 1.858,-0.832 1.858,-1.858 0,-1.026 -0.832,-1.858 -1.858,-1.858 -1.025,0 -1.857,0.832 -1.857,1.858 0,1.026 0.832,1.858 1.857,1.858 m 9.031,-10.875 c 1.027,0 1.859,-0.833 1.859,-1.858 0,-1.026 -0.832,-1.858 -1.859,-1.858 -1.025,0 -1.857,0.832 -1.857,1.858 0,1.025 0.832,1.858 1.857,1.858 M 7.188,72.604 c 1.026,0 1.858,-0.832 1.858,-1.858 0,-1.026 -0.832,-1.858 -1.858,-1.858 -1.026,0 -1.858,0.832 -1.858,1.858 0,1.026 0.832,1.858 1.858,1.858 M 24.25,64.505 c 1.026,0 1.858,-0.832 1.858,-1.858 0,-1.026 -0.832,-1.858 -1.858,-1.858 -1.025,0 -1.857,0.832 -1.857,1.858 0,1.026 0.832,1.858 1.857,1.858 m -3.531,-3.047 c 0.499,-1.48 1.883,-2.554 3.531,-2.554 2.067,0 3.743,1.676 3.743,3.743 0,2.067 -1.676,3.743 -3.743,3.743 -1.603,0 -2.96,-1.014 -3.493,-2.431 l -18.45,0 3.328,3.391 c 0.474,-0.218 0.997,-0.347 1.553,-0.347 2.067,0 3.743,1.676 3.743,3.743 0,2.067 -1.676,3.743 -3.743,3.743 -2.067,0 -3.743,-1.676 -3.743,-3.743 0,-0.791 0.249,-1.523 0.668,-2.127 l -4.65,-4.66 -190.584,0 -6.489,0 0,-256.715 6.489,0 51.769,0 1.197,0 c 0,0 -6.143,18.821 -6.536,29.299 -0.476,12.704 1.775,22.441 2.977,27.572 l -49.407,0 0,13.296 95.067,0 0,5.537 -95.067,0 0,22.126 102.678,0 37.747,-37.141 30.375,0 c 0.425,-1.599 1.87,-2.783 3.602,-2.783 2.068,0 3.743,1.676 3.743,3.742 0,2.066 -1.675,3.742 -3.743,3.742 -1.831,0 -3.349,-1.317 -3.673,-3.054 l -14.018,0 6.804,6.956 c 0.549,-0.316 1.177,-0.511 1.856,-0.511 2.067,0 3.743,1.675 3.743,3.742 0,2.067 -1.676,3.743 -3.743,3.743 -2.066,0 -3.742,-1.676 -3.742,-3.743 0,-0.736 0.221,-1.418 0.588,-1.997 l -8.131,-8.19 -12.982,0 -37.833,37.181 -103.271,0.016 0,28.368 102.836,0 32.42,-32.23 0.027,0.026 c -0.381,-0.586 -0.607,-1.282 -0.607,-2.033 0,-2.067 1.675,-3.743 3.742,-3.743 2.067,0 3.743,1.676 3.743,3.743 0,2.067 -1.676,3.742 -3.743,3.742 -0.818,0 -1.569,-0.27 -2.185,-0.715 l -32.805,32.599 -103.428,0 0,2.188 109.65,0 0,5.576 -109.65,0 0,13.632 132.881,0 20.953,-20.632 13.516,0 6.259,-6.196 c -0.086,-0.314 -0.146,-0.639 -0.146,-0.981 0,-2.067 1.676,-3.743 3.742,-3.743 2.067,0 3.743,1.676 3.743,3.743 0,2.067 -1.676,3.743 -3.743,3.743 -0.898,0 -1.712,-0.33 -2.357,-0.859 l -4.373,4.303 39.417,-0.01 c 0.506,-1.465 1.884,-2.524 3.521,-2.524 2.067,0 3.743,1.676 3.743,3.743 0,2.067 -1.676,3.743 -3.743,3.743 -1.679,0 -3.082,-1.113 -3.557,-2.636 l -12.522,0.012 4.243,4.688 -0.02,0.014 c 0.314,-0.086 0.639,-0.147 0.982,-0.147 2.067,0 3.743,1.676 3.743,3.743 0,2.067 -1.676,3.743 -3.743,3.743 -2.066,0 -3.742,-1.676 -3.742,-3.743 0,-0.934 0.354,-1.776 0.919,-2.432 l -5.413,-5.85 -38.922,-0.024 -20.833,20.237 -134.548,0 0,18.592 160.657,0 18.912,18.818 7.921,0 c 0.393,-1.647 1.864,-2.876 3.631,-2.876 2.067,0 3.743,1.676 3.743,3.743 0,2.067 -1.676,3.743 -3.743,3.743 -1.681,0 -3.086,-1.116 -3.559,-2.642 l -9.325,0 -18.499,-18.47 -89.153,-0.021 0,4.905 -70.585,0 0,26.369 110.027,0 0,5.544 -110.027,0 0,43.888 211.84,0 z"
             style="fill:#ffffff;fill-opacity:1;fill-rule:nonzero;stroke:none"
             id="path134"
             inkscape:connector-curvature="0" /></g></g></g><g
       id="g136"><g
         id="g138"
         clip-path="url(#clipPath140)"><g
           id="g144"
           transform="translate(413.792,521.6587)"><path
             d="m 0,0 c 5.096,0 9.227,-4.131 9.227,-9.227 0,-5.096 -4.131,-9.227 -9.227,-9.227 -5.097,0 -9.228,4.131 -9.228,9.227 C -9.228,-4.131 -5.097,0 0,0 m -48.823,-35.363 c 3.52,0 6.375,-2.854 6.375,-6.375 0,-3.521 -2.855,-6.375 -6.375,-6.375 -3.521,0 -6.375,2.854 -6.375,6.375 0,3.521 2.854,6.375 6.375,6.375 m 17.651,-47.736 c 2.506,0 4.536,-2.03 4.536,-4.536 0,-2.505 -2.03,-4.536 -4.536,-4.536 -2.505,0 -4.536,2.031 -4.536,4.536 0,2.506 2.031,4.536 4.536,4.536 m -30.131,-21.09 c 1.025,0 1.855,-0.83 1.855,-1.854 0,-1.025 -0.83,-1.855 -1.855,-1.855 -1.024,0 -1.854,0.83 -1.854,1.855 0,1.024 0.83,1.854 1.854,1.854 m -145.489,-28.782 c -2.491,3.373 -6.792,8.538 -6.792,8.538 l 2.261,1.071 -2.438,3.547 -2.656,3.781 c 5.045,1.033 8.858,1.334 9.341,1.334 l 6.134,0.092 c -0.339,-15.829 -0.356,-15.16 0.179,-25.614 0.028,-0.53 0.053,-1.029 0.078,-1.514 -1.765,3.007 -3.737,5.556 -6.107,8.765 m 77.891,232.844 c 0,1.285 1.041,2.325 2.326,2.325 1.284,0 2.325,-1.04 2.325,-2.325 0,-1.285 -1.041,-2.326 -2.325,-2.326 -1.285,0 -2.326,1.041 -2.326,2.326 m 73.312,3.222 c 1.066,0 1.93,-0.864 1.93,-1.929 0,-1.066 -0.864,-1.93 -1.93,-1.93 -1.065,0 -1.93,0.864 -1.93,1.93 0,1.065 0.865,1.929 1.93,1.929 m 41.344,3.971 c 1.073,0 1.944,-0.871 1.944,-1.944 0,-1.075 -0.871,-1.945 -1.944,-1.945 -1.074,0 -1.944,0.87 -1.944,1.945 0,1.073 0.87,1.944 1.944,1.944 m 6.744,-36.903 c 3.067,0 5.553,-2.486 5.553,-5.553 0,-3.067 -2.486,-5.553 -5.553,-5.553 -3.066,0 -5.553,2.486 -5.553,5.553 0,3.067 2.487,5.553 5.553,5.553 m -54.228,-3.189 c 1.095,0 1.984,-0.889 1.984,-1.984 0,-1.096 -0.889,-1.985 -1.984,-1.985 -1.096,0 -1.985,0.889 -1.985,1.985 0,1.095 0.889,1.984 1.985,1.984 m 17.728,-10.299 c 3.083,0 5.583,-2.499 5.583,-5.583 0,-3.083 -2.5,-5.583 -5.583,-5.583 -3.084,0 -5.583,2.5 -5.583,5.583 0,3.084 2.499,5.583 5.583,5.583 M 17.078,43.488 c 3.039,0 5.503,-2.463 5.503,-5.502 0,-3.039 -2.464,-5.503 -5.503,-5.503 -3.039,0 -5.502,2.464 -5.502,5.503 0,3.039 2.463,5.502 5.502,5.502 m -115.366,-29.689 65.699,0 19.75,21.136 19.853,-0.013 c 1.312,-4.316 5.32,-7.457 10.064,-7.457 5.812,0 10.522,4.71 10.522,10.521 0,5.81 -4.71,10.521 -10.522,10.521 -4.771,0 -8.794,-3.178 -10.083,-7.531 l -22.383,-0.011 -20.366,-20.933 -81.829,0 0,3.93 32.753,-0.057 0,5.535 -44.514,0 0,5.505 -17.537,-0.023 0,5.541 42.003,0 0,7.69 50.76,0 c 1.273,-4.39 5.317,-7.603 10.117,-7.603 5.822,0 10.542,4.72 10.542,10.542 0,5.822 -4.72,10.542 -10.542,10.542 -4.82,0 -8.877,-3.24 -10.132,-7.659 l -15.597,0 -62.999,0 0,4.105 15.394,0 0,5.971 52.168,0 0,0.077 c 0.387,-1.544 1.773,-2.693 3.438,-2.693 1.962,0 3.554,1.592 3.554,3.555 0,1.963 -1.592,3.554 -3.554,3.554 -1.699,0 -3.115,-1.193 -3.467,-2.786 l -79.144,-0.015 0,6.287 123,0 3.742,-3.211 c -0.541,-1.296 -0.841,-2.716 -0.841,-4.209 0,-6.041 4.896,-10.938 10.937,-10.938 6.042,0 10.939,4.897 10.939,10.938 0,6.041 -4.897,10.938 -10.939,10.938 -2.517,0 -4.827,-0.858 -6.676,-2.287 l -5.796,5.024 -107.255,0 0.01,6.066 -49.37,0 0,6.538 151.508,0 9.543,10.595 c 0.406,-0.145 0.837,-0.238 1.293,-0.238 2.14,0 3.875,1.735 3.875,3.875 0,2.14 -1.735,3.875 -3.875,3.875 -2.14,0 -3.875,-1.735 -3.875,-3.875 0,-0.668 0.184,-1.287 0.482,-1.835 -0.622,-1.005 -8.404,-9.226 -8.404,-9.226 l -34.734,0 3.558,3.777 c 0.494,-0.242 1.042,-0.39 1.629,-0.39 2.054,0 3.719,1.665 3.719,3.719 0,2.053 -1.665,3.718 -3.719,3.718 -2.054,0 -3.719,-1.665 -3.719,-3.718 0,-0.752 0.227,-1.448 0.611,-2.033 l -4.751,-5.073 -62.188,0 0,1.936 c 1.754,0.424 3.06,1.993 3.06,3.877 0,2.209 -1.791,4 -4,4 -2.209,0 -4,-1.791 -4,-4 0,-1.886 1.309,-3.456 3.065,-3.879 l 0,-1.934 -49.107,0 c 0,0 -8.636,-0.02 -19.808,-2.72 -6.857,-1.657 -15.721,-4.573 -30.782,-14.494 -11.529,-7.596 -17.295,-13.821 -22.422,-21.677 -6.68,-10.237 -10.038,-18.081 -12.568,-29.774 -3.268,-15.106 -1.328,-24.33 -1.931,-30.388 -0.784,-7.883 -6.943,-14.04 -15.322,-23.925 -8.379,-9.886 -8.72,-10.831 -9.126,-11.471 -0.541,-0.853 -1.521,-2.744 -1.382,-5.481 0.072,-1.429 0.563,-2.505 2.066,-3.77 1.861,-1.568 5.153,-3.151 6.566,-4.152 1.573,-1.116 3.127,-2.04 2.458,-4.663 -0.689,-2.697 -3.394,-8.567 -3.81,-9.603 -0.252,-0.628 -0.117,-2.066 0.891,-3.852 1.017,-1.801 1.746,-2.7 4.897,-5.363 3.046,-2.573 3.599,-2.895 3.599,-2.895 0,0 -2.87,-0.837 -3.686,-1.67 -0.814,-0.834 -1.615,-1.878 -1.847,-4.26 -0.233,-2.382 0.296,-4.114 1.769,-6.416 1.439,-2.247 1.793,-2.687 2.154,-4.304 0.536,-2.402 0.303,-2.977 0.455,-6.181 0.175,-3.706 0.748,-7.754 1.795,-10.851 1.048,-3.097 3.316,-7.983 6.73,-10.285 3.7,-2.496 6.45,-3.647 13.382,-3.157 5.602,0.396 17.267,5.365 24.366,7.824 l 6.318,-8.24 2.783,1.268 c 5.831,-6.865 14.537,-19.388 17.582,-25.893 1.869,-3.994 3.048,-6.865 3.79,-8.918 0.36,-1.442 0.771,-3.06 1.239,-4.89 l 0,-0.001 c 0.062,-0.384 0.127,-0.614 0.192,-0.751 0.259,-1.011 0.535,-2.37 0.83,-3.517 l 46.615,0 21.939,0 -1.825,9.291 -17.601,0 c -0.718,2.828 -1.487,5.902 -2.183,9.59 l 16.502,0 -1.562,9.909 -16.43,0 c -0.067,0.564 -0.131,1.13 -0.191,1.701 -0.303,2.88 -0.418,5.747 -0.419,8.492 l 17.694,0 0.972,8.825 -18.321,0 c 0.269,3.688 0.617,6.85 0.766,8.865 l 18.992,0 2.351,7.882 16.701,0 0,16.473 31.453,0 15.089,-14.808 c -0.289,-0.558 -0.467,-1.182 -0.467,-1.853 0,-2.245 1.819,-4.063 4.062,-4.063 2.243,0 4.063,1.818 4.063,4.063 0,2.244 -1.82,4.062 -4.063,4.062 -0.708,0 -1.364,-0.197 -1.943,-0.516 l -15.986,15.678 -48.36,0 0,3.327 35.133,0 0,3.167 -20.678,0 0,3.284 -20.286,0 0,5.009 -20.854,0 0,1.694 42.412,0 0,5.826 29.457,0 0,3.519 -56.784,0 0,2.588 58.248,0 30.797,-31.541 10.463,0 c 1.017,-3.753 4.437,-6.517 8.512,-6.517 4.876,0 8.828,3.953 8.828,8.828 0,4.875 -3.952,8.828 -8.828,8.828 -4.021,0 -7.408,-2.692 -8.474,-6.369 -0.782,-0.022 -8.48,0.003 -8.48,0.003 l -30.52,31.296 -42.505,0 0,3.283 25.158,0 0,4.287 -17.461,0 0,4.344 -33.958,0.004 0,1.384 45.655,0.001 0.015,7.765 37.138,0 4.691,-3.535 c -0.795,-1.631 -1.254,-3.457 -1.254,-5.394 0,-6.817 5.526,-12.344 12.344,-12.344 6.817,0 12.344,5.527 12.344,12.344 0,6.818 -5.527,12.344 -12.344,12.344 -2.788,0 -5.351,-0.935 -7.417,-2.494 l -6.036,4.637 -35.416,0 0,8.084 -76.74,0 0,1.167 25.54,0 0,4.334 131.939,0 C -14.985,-21.2 -8.152,-26.769 0,-26.769 c 9.688,0 17.541,7.854 17.541,17.542 0,9.688 -7.853,17.541 -17.541,17.541 -8.067,0 -14.846,-5.453 -16.894,-12.869 l -97.125,0 0,6.047 -23.81,-0.142 -17.309,0.142 -0.005,6.847 56.855,0 0,5.46 z"
             style="fill:#b4b3b4;fill-opacity:1;fill-rule:nonzero;stroke:none"
             id="path146"
             inkscape:connector-curvature="0" /></g></g></g></g></svg>