<?xml version="1.0" encoding="UTF-8" standalone="no"?>
<!-- Created with Inkscape (http://www.inkscape.org/) -->
<svg xmlns:dc="http://purl.org/dc/elements/1.1/" xmlns:cc="http://creativecommons.org/ns#" xmlns:rdf="http://www.w3.org/1999/02/22-rdf-syntax-ns#" xmlns:svg="http://www.w3.org/2000/svg" xmlns="http://www.w3.org/2000/svg" xmlns:sodipodi="http://sodipodi.sourceforge.net/DTD/sodipodi-0.dtd" xmlns:inkscape="http://www.inkscape.org/namespaces/inkscape" id="svg2" version="1.1" inkscape:version="0.48.3.1 r9886" width="744.1" height="1052.3625" xml:space="preserve" sodipodi:docname="FIXME_Logo.ai"><metadata id="metadata8"><rdf:RDF><cc:Work rdf:about=""><dc:format>image/svg+xml</dc:format><dc:type rdf:resource="http://purl.org/dc/dcmitype/StillImage"/><dc:title/></cc:Work></rdf:RDF></metadata><defs id="defs6"><clipPath clipPathUnits="userSpaceOnUse" id="clipPath18"><path d="m 0,841.89 595.28,0 L 595.28,0 0,0 0,841.89 z" id="path20"/></clipPath><clipPath clipPathUnits="userSpaceOnUse" id="clipPath128"><path d="m 0,841.89 595.28,0 L 595.28,0 0,0 0,841.89 z" id="path130"/></clipPath><clipPath clipPathUnits="userSpaceOnUse" id="clipPath140"><path d="m 0,841.89 595.28,0 L 595.28,0 0,0 0,841.89 z" id="path142"/></clipPath></defs><sodipodi:namedview pagecolor="#ffffff" bordercolor="#666666" borderopacity="1" objecttolerance="10" gridtolerance="10" guidetolerance="10" inkscape:pageopacity="0" inkscape:pageshadow="2" inkscape:window-width="1280" inkscape:window-height="774" id="namedview4" showgrid="false" inkscape:zoom="0.22425732" inkscape:cx="372.04999" inkscape:cy="526.18127" inkscape:window-x="0" inkscape:window-y="-6" inkscape:window-maximized="1" inkscape:current-layer="g10"/><g id="g10" inkscape:groupmode="layer" inkscape:label="FIXME_Logo" transform="matrix(1.25,0,0,-1.25,0,1052.3625)"><path d="m 0,0 595.281,0 0,841.89 L 0,841.89 0,0 z" style="fill:#1c1c1b;fill-opacity:1;fill-rule:nonzero;stroke:none" id="path12"/><g id="g14"><g id="g16" clip-path="url(#clipPath18)"><g id="g22" transform="translate(309.0918,252.4756)"><path d="m 0,0 0,-1 c 0,-0.274 -0.123,-0.399 -0.396,-0.399 l -7.697,0 c -0.272,0 -0.397,0.125 -0.397,0.399 l 0,16.571 c 0,0.25 0.125,0.375 0.397,0.375 l 1.241,0 c 0.248,0 0.399,-0.125 0.399,-0.375 l 0,-14.796 c 0,-0.25 0.123,-0.375 0.371,-0.375 l 5.686,0 C -0.123,0.4 0,0.275 0,0" style="fill:#ffffff;fill-opacity:1;fill-rule:nonzero;stroke:none" id="path24"/></g><g id="g26" transform="translate(315.8691,263.6729)"><path d="m 0,0 -1.365,-5.698 c -0.051,-0.175 -0.051,-0.276 0,-0.375 0.074,-0.125 0.174,-0.2 0.322,-0.2 l 2.656,0 c 0.125,0 0.223,0.075 0.299,0.174 0.049,0.076 0.074,0.226 0.024,0.401 L 0.695,0 C 0.67,0.15 0.545,0.25 0.348,0.25 0.123,0.25 0.025,0.15 0,0 m -4.717,-12.597 c -0.248,0 -0.373,0.125 -0.373,0.375 0,-0.025 0,0.05 0.026,0.15 l 4.269,16.621 c 0.025,0.15 0.125,0.225 0.322,0.225 l 1.639,0 c 0.174,0 0.273,-0.075 0.322,-0.225 l 4.221,-16.695 0,-0.151 c 0,-0.2 -0.123,-0.3 -0.348,-0.3 l -1.488,0 c -0.199,0 -0.324,0.076 -0.324,0.201 l -1.067,4.173 c -0.025,0.15 -0.173,0.225 -0.373,0.225 l -3.648,0 c -0.199,0 -0.299,-0.075 -0.348,-0.225 l -1.142,-4.173 c -0.026,-0.125 -0.149,-0.201 -0.323,-0.201 l -1.365,0 z" style="fill:#ffffff;fill-opacity:1;fill-rule:nonzero;stroke:none" id="path28"/></g><g id="g30" transform="translate(328.2813,250.6768)"><path d="m 0,0 c -2.582,0 -4.668,1.724 -4.668,4.424 l 0,12.922 c 0,0.25 0.15,0.399 0.398,0.399 l 1.241,0 c 0.248,0 0.398,-0.149 0.398,-0.399 l 0,-12.948 c 0,-1.399 1.315,-2.399 2.631,-2.399 1.34,0 2.631,0.975 2.631,2.399 l 0,12.972 c 0,0.25 0.15,0.375 0.398,0.375 l 1.241,0 c 0.248,0 0.373,-0.125 0.373,-0.375 l 0,-12.946 C 4.643,1.674 2.631,0 0,0" style="fill:#ffffff;fill-opacity:1;fill-rule:nonzero;stroke:none" id="path32"/></g><g id="g34" transform="translate(335.7031,254.6006)"><path d="M 0,0 C 0,0.225 0.123,0.324 0.348,0.324 L 1.787,0.35 c 0.274,0 0.322,-0.1 0.373,-0.326 0.274,-1.349 0.992,-1.849 2.432,-1.849 1.441,0 2.582,0.55 2.582,2.125 0,0.599 -0.322,1.374 -0.77,1.824 L 2.01,6.448 c -1.092,1.074 -1.836,2.175 -1.836,3.799 0,2.5 1.961,4.024 4.344,4.024 2.285,0 4.445,-1.45 4.445,-3.923 0,-0.226 -0.15,-0.326 -0.373,-0.326 l -1.242,0 c -0.174,0 -0.371,0.175 -0.422,0.326 -0.274,1.099 -1.018,1.949 -2.258,1.949 -1.268,0 -2.311,-0.625 -2.311,-2 0,-0.749 0.399,-1.424 0.895,-1.949 L 7.92,3.599 C 8.838,2.674 9.26,1.624 9.26,0.3 9.26,-2.675 7.422,-3.924 4.617,-3.924 2.184,-3.924 0,-2.649 0,0" style="fill:#ffffff;fill-opacity:1;fill-rule:nonzero;stroke:none" id="path36"/></g><g id="g38" transform="translate(352.2305,263.6729)"><path d="m 0,0 -1.365,-5.698 c -0.051,-0.175 -0.051,-0.276 0,-0.375 0.074,-0.125 0.174,-0.2 0.322,-0.2 l 2.656,0 c 0.125,0 0.223,0.075 0.299,0.174 0.049,0.076 0.074,0.226 0.024,0.401 L 0.695,0 C 0.67,0.15 0.545,0.25 0.348,0.25 0.123,0.25 0.025,0.15 0,0 m -4.717,-12.597 c -0.248,0 -0.373,0.125 -0.373,0.375 0,-0.025 0,0.05 0.026,0.15 l 4.269,16.621 c 0.025,0.15 0.125,0.225 0.322,0.225 l 1.639,0 c 0.174,0 0.273,-0.075 0.322,-0.225 l 4.221,-16.695 0,-0.151 c 0,-0.2 -0.123,-0.3 -0.348,-0.3 l -1.488,0 c -0.199,0 -0.324,0.076 -0.324,0.201 l -1.067,4.173 c -0.025,0.15 -0.173,0.225 -0.373,0.225 l -3.648,0 c -0.199,0 -0.299,-0.075 -0.348,-0.225 l -1.142,-4.173 c -0.026,-0.125 -0.149,-0.201 -0.323,-0.201 l -1.365,0 z" style="fill:#ffffff;fill-opacity:1;fill-rule:nonzero;stroke:none" id="path40"/></g><g id="g42" transform="translate(363.2773,262.3486)"><path d="m 0,0 c -0.051,0.125 -0.148,0.2 -0.322,0.2 -0.25,0 -0.373,-0.15 -0.373,-0.4 l 0,-10.673 c 0,-0.274 -0.125,-0.399 -0.373,-0.399 l -1.192,0 c -0.273,0 -0.396,0.125 -0.396,0.399 l 0,16.571 c 0,0.25 0.123,0.375 0.371,0.375 l 1.019,0 c 0.149,0 0.272,-0.075 0.346,-0.25 L 4.344,-4.624 c 0.051,-0.1 0.125,-0.15 0.299,-0.15 0.248,0 0.371,0.125 0.371,0.375 l 0,10.097 c 0,0.276 0.125,0.401 0.398,0.401 l 1.166,0 c 0.274,0 0.399,-0.125 0.399,-0.401 l 0,-16.595 c 0,-0.25 -0.125,-0.375 -0.399,-0.375 l -0.992,0 c -0.15,0 -0.248,0.075 -0.348,0.25 L 0,0 z" style="fill:#ffffff;fill-opacity:1;fill-rule:nonzero;stroke:none" id="path44"/></g><g id="g46" transform="translate(377.0781,262.3486)"><path d="m 0,0 c -0.049,0.125 -0.148,0.2 -0.322,0.2 -0.248,0 -0.373,-0.15 -0.373,-0.4 l 0,-10.673 c 0,-0.274 -0.123,-0.399 -0.371,-0.399 l -1.192,0 c -0.273,0 -0.398,0.125 -0.398,0.399 l 0,16.571 c 0,0.25 0.125,0.375 0.373,0.375 l 1.017,0 c 0.149,0 0.274,-0.075 0.348,-0.25 L 4.346,-4.624 c 0.049,-0.1 0.123,-0.15 0.297,-0.15 0.248,0 0.373,0.125 0.373,0.375 l 0,10.097 c 0,0.276 0.123,0.401 0.396,0.401 l 1.168,0 c 0.274,0 0.397,-0.125 0.397,-0.401 l 0,-16.595 c 0,-0.25 -0.123,-0.375 -0.397,-0.375 l -0.994,0 c -0.148,0 -0.248,0.075 -0.348,0.25 L 0,0 z" style="fill:#ffffff;fill-opacity:1;fill-rule:nonzero;stroke:none" id="path48"/></g><g id="g50" transform="translate(396.0684,268.0469)"><path d="m 0,0 0,-1.125 c 0,-0.274 -0.123,-0.399 -0.396,-0.399 l -5.04,0 c -0.248,0 -0.373,-0.125 -0.373,-0.375 l 0,-5.174 c 0,-0.15 0.049,-0.225 0.2,-0.225 l 3.574,0 c 0.248,0 0.396,-0.125 0.373,-0.4 l 0,-1.15 c 0,-0.25 -0.125,-0.375 -0.373,-0.375 l -3.426,0 c -0.248,0 -0.373,-0.125 -0.373,-0.375 l 0.025,-5.249 c 0,-0.249 0.125,-0.374 0.373,-0.374 l 5.04,0 c 0.273,0 0.396,-0.125 0.396,-0.375 l 0,-0.975 c 0,-0.275 -0.123,-0.4 -0.396,-0.4 l -7.051,0 c -0.274,0 -0.397,0.125 -0.397,0.4 l 0,16.571 c 0,0.25 0.123,0.375 0.397,0.375 l 7.051,0 C -0.123,0.375 0,0.25 0,0" style="fill:#ffffff;fill-opacity:1;fill-rule:nonzero;stroke:none" id="path52"/></g><g id="g54" transform="translate(160.1436,251.0762)"><path d="m 0,0 -1.266,0 c -0.273,0 -0.397,0.15 -0.397,0.399 l 0,16.572 c 0,0.25 0.124,0.375 0.397,0.375 l 1.242,0 c 0.248,0 0.372,-0.125 0.372,-0.375 l 0,-7.098 c 0,-0.25 0.124,-0.375 0.372,-0.375 l 4.767,0 c 0.248,0 0.397,0.125 0.397,0.375 l 0,7.098 c 0,0.25 0.124,0.375 0.372,0.375 l 1.266,0 c 0.249,0 0.373,-0.125 0.373,-0.375 l 0,-16.572 C 7.895,0.15 7.771,0 7.522,0 L 6.281,0 C 6.008,0 5.884,0.15 5.884,0.399 l 0,6.874 c 0,0.275 -0.124,0.4 -0.372,0.4 l -4.767,0 c -0.248,0 -0.372,-0.125 -0.372,-0.4 l 0,-6.874 C 0.373,0.15 0.249,0 0,0" style="fill:#b4b3b4;fill-opacity:1;fill-rule:nonzero;stroke:none" id="path56"/></g><g id="g58" transform="translate(175.8818,263.6729)"><path d="m 0,0 -1.365,-5.698 c -0.05,-0.175 -0.05,-0.276 0,-0.375 0.074,-0.125 0.174,-0.2 0.323,-0.2 l 2.656,0 c 0.124,0 0.223,0.075 0.298,0.174 0.049,0.076 0.074,0.226 0.025,0.401 L 0.695,0 C 0.67,0.15 0.546,0.25 0.348,0.25 0.125,0.25 0.025,0.15 0,0 m -4.717,-12.597 c -0.248,0 -0.372,0.125 -0.372,0.375 0,-0.025 0,0.05 0.025,0.15 l 4.27,16.621 c 0.024,0.15 0.124,0.225 0.322,0.225 l 1.639,0 c 0.174,0 0.273,-0.075 0.323,-0.225 l 4.22,-16.695 0,-0.151 c 0,-0.2 -0.124,-0.3 -0.347,-0.3 l -1.49,0 c -0.199,0 -0.323,0.076 -0.323,0.201 l -1.067,4.173 c -0.025,0.15 -0.174,0.225 -0.373,0.225 l -3.649,0 c -0.199,0 -0.298,-0.075 -0.348,-0.225 l -1.142,-4.173 c -0.024,-0.125 -0.149,-0.201 -0.323,-0.201 l -1.365,0 z" style="fill:#b4b3b4;fill-opacity:1;fill-rule:nonzero;stroke:none" id="path60"/></g><g id="g62" transform="translate(193.2349,264.0732)"><path d="m 0,0 -1.415,0 c -0.249,0 -0.373,0.125 -0.373,0.324 0,1.6 -1.266,2.425 -2.631,2.425 -1.316,0 -2.632,-1.1 -2.632,-2.425 l 0,-9.397 c 0,-1.324 1.316,-2.324 2.632,-2.324 1.688,0 2.631,1.049 2.631,2.424 0,0.225 0.124,0.325 0.373,0.325 l 1.415,0 c 0.248,0 0.373,-0.1 0.373,-0.325 0,-2.575 -1.664,-4.423 -4.792,-4.423 -2.557,0 -4.717,1.599 -4.717,4.323 l 0,9.397 c 0,2.8 2.309,4.475 4.717,4.475 2.557,0 4.792,-1.475 4.792,-4.475 C 0.373,0.125 0.248,0 0,0" style="fill:#b4b3b4;fill-opacity:1;fill-rule:nonzero;stroke:none" id="path64"/></g><g id="g66" transform="translate(206.2427,268.0723)"><path d="m 0,0 c 0,-0.101 -0.025,-0.2 -0.075,-0.275 -0.422,-0.625 -3.773,-6.248 -3.773,-6.474 0,-0.1 0.05,-0.199 0.099,-0.3 0.521,-1.099 3.848,-9.298 3.848,-9.572 0,-0.25 -0.099,-0.375 -0.348,-0.375 l -1.539,0 c -0.124,0 -0.248,0.025 -0.297,0.15 l -3.004,7.923 c -0.05,0.1 -0.149,0.15 -0.249,0.15 -0.049,0 -0.198,-0.025 -0.223,-0.075 l -1.49,-2.424 c -0.099,-0.151 -0.174,-0.326 -0.174,-0.526 l 0,-4.799 c 0,-0.249 -0.124,-0.399 -0.372,-0.399 l -1.266,0 c -0.248,0 -0.397,0.15 -0.397,0.399 L -9.26,0 c 0,0.25 0.149,0.375 0.397,0.375 l 1.241,0 c 0.248,0 0.397,-0.125 0.397,-0.375 l 0,-7.474 c 0,-0.125 0.124,-0.2 0.224,-0.2 0.149,0 0.198,0.101 0.273,0.2 l 4.593,7.724 c 0.05,0.1 0.174,0.125 0.273,0.125 l 1.514,0 C -0.1,0.375 0,0.25 0,0" style="fill:#b4b3b4;fill-opacity:1;fill-rule:nonzero;stroke:none" id="path68"/></g><g id="g70" transform="translate(217.0664,268.0469)"><path d="m 0,0 0,-1.125 c 0,-0.274 -0.125,-0.399 -0.397,-0.399 l -5.04,0 c -0.249,0 -0.373,-0.125 -0.373,-0.375 l 0,-5.174 c 0,-0.15 0.05,-0.225 0.199,-0.225 l 3.575,0 c 0.248,0 0.397,-0.125 0.372,-0.4 l 0,-1.15 c 0,-0.25 -0.124,-0.375 -0.372,-0.375 l -3.426,0 c -0.248,0 -0.372,-0.125 -0.372,-0.375 l 0.024,-5.249 c 0,-0.249 0.124,-0.374 0.373,-0.374 l 5.04,0 c 0.272,0 0.397,-0.125 0.397,-0.375 l 0,-0.975 c 0,-0.275 -0.125,-0.4 -0.397,-0.4 l -7.051,0 c -0.273,0 -0.397,0.125 -0.397,0.4 l 0,16.571 c 0,0.25 0.124,0.375 0.397,0.375 l 7.051,0 C -0.125,0.375 0,0.25 0,0" style="fill:#b4b3b4;fill-opacity:1;fill-rule:nonzero;stroke:none" id="path72"/></g><g id="g74" transform="translate(222.353,266.0225)"><path d="m 0,0 0,-4.799 c 0,-0.3 0.149,-0.45 0.447,-0.45 l 1.241,0 c 1.887,0 2.657,1.025 2.657,2.875 0,1.874 -0.944,2.749 -2.781,2.749 l -1.191,0 C 0.124,0.375 0,0.25 0,0 m 7.001,-14.946 -1.589,0 c -0.149,0 -0.298,0.075 -0.348,0.2 l -3.202,7.373 c -0.049,0.125 -0.174,0.149 -0.298,0.149 l -1.365,0 C 0.075,-7.224 0,-7.298 0,-7.423 l 0,-7.124 c 0,-0.249 -0.124,-0.399 -0.373,-0.399 l -1.266,0 c -0.248,0 -0.397,0.15 -0.397,0.399 l 0,16.571 c 0,0.25 0.149,0.375 0.397,0.375 l 3.203,0 c 3.054,0 4.915,-1.649 4.915,-4.773 0,-2.475 -0.744,-3.55 -2.258,-4.374 -0.125,-0.075 -0.125,-0.175 -0.125,-0.3 0,-0.075 0,-0.125 0.025,-0.2 0.323,-0.7 3.253,-7.049 3.253,-7.323 0,-0.25 -0.125,-0.375 -0.373,-0.375" style="fill:#b4b3b4;fill-opacity:1;fill-rule:nonzero;stroke:none" id="path76"/></g><g id="g78" transform="translate(231.7363,254.6006)"><path d="m 0,0 c 0,0.225 0.124,0.324 0.347,0.324 l 1.44,0.026 c 0.274,0 0.323,-0.1 0.373,-0.326 0.273,-1.349 0.993,-1.849 2.433,-1.849 1.44,0 2.581,0.55 2.581,2.125 0,0.599 -0.322,1.374 -0.769,1.824 L 2.011,6.448 c -1.093,1.074 -1.837,2.175 -1.837,3.799 0,2.5 1.961,4.024 4.344,4.024 2.284,0 4.444,-1.45 4.444,-3.923 0,-0.226 -0.149,-0.326 -0.372,-0.326 l -1.242,0 c -0.174,0 -0.372,0.175 -0.422,0.326 -0.273,1.099 -1.018,1.949 -2.259,1.949 -1.266,0 -2.309,-0.625 -2.309,-2 0,-0.749 0.397,-1.424 0.894,-1.949 L 7.919,3.599 C 8.838,2.674 9.26,1.624 9.26,0.3 9.26,-2.675 7.423,-3.924 4.618,-3.924 2.185,-3.924 0,-2.649 0,0" style="fill:#b4b3b4;fill-opacity:1;fill-rule:nonzero;stroke:none" id="path80"/></g><g id="g82" transform="translate(246.5313,266.1221)"><path d="m 0,0 0,-5.698 c 0,-0.125 0.075,-0.2 0.199,-0.2 l 1.316,0 c 2.01,0 2.979,1.325 2.979,3.324 0,2 -1.118,2.949 -2.979,2.949 l -1.142,0 C 0.124,0.375 0,0.25 0,0 m -1.639,-15.046 c -0.248,0 -0.397,0.15 -0.397,0.4 l 0,16.596 c 0,0.25 0.149,0.375 0.397,0.375 l 3.154,0 c 3.004,0 5.163,-1.65 5.163,-4.824 0,-3.299 -1.911,-5.323 -5.163,-5.323 l -1.316,0 C 0.075,-7.822 0,-7.897 0,-8.022 l 0,-6.624 c 0,-0.25 -0.124,-0.4 -0.373,-0.4 l -1.266,0 z" style="fill:#b4b3b4;fill-opacity:1;fill-rule:nonzero;stroke:none" id="path84"/></g><g id="g86" transform="translate(259.563,263.6729)"><path d="m 0,0 -1.365,-5.698 c -0.05,-0.175 -0.05,-0.276 0,-0.375 0.074,-0.125 0.174,-0.2 0.323,-0.2 l 2.656,0 c 0.124,0 0.223,0.075 0.298,0.174 0.049,0.076 0.074,0.226 0.025,0.401 L 0.695,0 C 0.67,0.15 0.546,0.25 0.348,0.25 0.124,0.25 0.025,0.15 0,0 m -4.717,-12.597 c -0.248,0 -0.372,0.125 -0.372,0.375 0,-0.025 0,0.05 0.025,0.15 l 4.27,16.621 c 0.024,0.15 0.124,0.225 0.322,0.225 l 1.639,0 c 0.174,0 0.273,-0.075 0.323,-0.225 l 4.22,-16.695 0,-0.151 c 0,-0.2 -0.124,-0.3 -0.347,-0.3 l -1.49,0 c -0.199,0 -0.323,0.076 -0.323,0.201 l -1.067,4.173 c -0.025,0.15 -0.174,0.225 -0.373,0.225 l -3.649,0 c -0.199,0 -0.298,-0.075 -0.348,-0.225 l -1.142,-4.173 c -0.025,-0.125 -0.149,-0.201 -0.323,-0.201 l -1.365,0 z" style="fill:#b4b3b4;fill-opacity:1;fill-rule:nonzero;stroke:none" id="path88"/></g><g id="g90" transform="translate(276.9155,264.0732)"><path d="m 0,0 -1.415,0 c -0.249,0 -0.373,0.125 -0.373,0.324 0,1.6 -1.266,2.425 -2.631,2.425 -1.316,0 -2.632,-1.1 -2.632,-2.425 l 0,-9.397 c 0,-1.324 1.316,-2.324 2.632,-2.324 1.688,0 2.631,1.049 2.631,2.424 0,0.225 0.124,0.325 0.373,0.325 l 1.415,0 c 0.248,0 0.373,-0.1 0.373,-0.325 0,-2.575 -1.664,-4.423 -4.792,-4.423 -2.557,0 -4.717,1.599 -4.717,4.323 l 0,9.397 c 0,2.8 2.309,4.475 4.717,4.475 2.557,0 4.792,-1.475 4.792,-4.475 C 0.373,0.125 0.248,0 0,0" style="fill:#b4b3b4;fill-opacity:1;fill-rule:nonzero;stroke:none" id="path92"/></g><g id="g94" transform="translate(288.5083,268.0469)"><path d="m 0,0 0,-1.125 c 0,-0.274 -0.125,-0.399 -0.397,-0.399 l -5.04,0 c -0.249,0 -0.373,-0.125 -0.373,-0.375 l 0,-5.174 c 0,-0.15 0.05,-0.225 0.199,-0.225 l 3.575,0 c 0.248,0 0.397,-0.125 0.372,-0.4 l 0,-1.15 c 0,-0.25 -0.124,-0.375 -0.372,-0.375 l -3.426,0 c -0.248,0 -0.372,-0.125 -0.372,-0.375 l 0.024,-5.249 c 0,-0.249 0.124,-0.374 0.373,-0.374 l 5.04,0 c 0.272,0 0.397,-0.125 0.397,-0.375 l 0,-0.975 c 0,-0.275 -0.125,-0.4 -0.397,-0.4 l -7.051,0 c -0.273,0 -0.397,0.125 -0.397,0.4 l 0,16.571 c 0,0.25 0.124,0.375 0.397,0.375 l 7.051,0 C -0.125,0.375 0,0.25 0,0" style="fill:#b4b3b4;fill-opacity:1;fill-rule:nonzero;stroke:none" id="path96"/></g><g id="g98" transform="translate(189.1377,305.335)"><path d="m 0,0 -23.474,0 0,-25.178 c 0,-0.846 -0.688,-1.54 -1.529,-1.54 l -3.9,0 c -0.841,0 -1.529,0.694 -1.529,1.54 l 0,41.886 c 0,10.24 5.582,14.321 16.286,14.321 4.512,0 11.699,-0.154 14.911,-0.462 0.458,-0.077 0.764,-0.616 0.764,-1.078 l 0,-3.849 c 0,-0.539 -0.306,-0.924 -0.841,-0.924 l -14.757,0 c -8.105,0 -9.405,-2.156 -9.405,-8.008 l 0,-10.702 23.474,0 c 0.841,0 1.529,-0.693 1.529,-1.54 l 0,-2.926 C 1.529,0.692 0.841,0 0,0" style="fill:#b4b3b4;fill-opacity:1;fill-rule:nonzero;stroke:none" id="path100"/></g><g id="g102" transform="translate(215.7441,278.6172)"><path d="M 0,0 -4.206,0 C -4.97,0 -5.582,0.693 -5.582,1.54 l 0,54.205 c 0,0.77 0.535,1.463 1.376,1.463 l 4.206,0 c 0.765,0 1.376,-0.616 1.376,-1.463 l 0,-54.205 C 1.376,0.77 0.841,0 0,0" style="fill:#b4b3b4;fill-opacity:1;fill-rule:nonzero;stroke:none" id="path104"/></g><g id="g106" transform="translate(277.3711,278.6172)"><path d="M 0,0 -4.817,0 C -5.582,0 -5.888,0.308 -6.423,1.155 L -20.415,23.561 -34.102,1.155 C -34.637,0.308 -35.096,0 -35.708,0 l -4.511,0 c -0.841,0 -1.223,0.539 -1.223,1.155 0,0.231 0.076,0.539 0.229,0.77 L -24.238,29.104 -41.06,55.36 c -0.153,0.231 -0.23,0.539 -0.23,0.77 0,0.616 0.383,1.078 1.147,1.078 l 4.971,0 c 0.764,0 1.07,-0.231 1.376,-0.77 l 13.763,-21.944 13.304,21.944 c 0.459,0.693 0.841,0.77 1.453,0.77 l 4.511,0 c 0.765,0 1.224,-0.539 1.224,-1.155 0,-0.231 -0.077,-0.462 -0.23,-0.693 L -16.21,28.95 0.994,1.925 C 1.147,1.694 1.224,1.386 1.224,1.078 1.224,0.539 0.841,0 0,0" style="fill:#b4b3b4;fill-opacity:1;fill-rule:nonzero;stroke:none" id="path108"/></g><g id="g110" transform="translate(341.1367,278.6172)"><path d="m 0,0 -3.746,0 c -0.842,0 -1.529,0.693 -1.529,1.54 l 0,45.658 c 0,0.155 0,0.232 -0.077,0.232 -0.076,0 -0.076,0 -0.152,-0.155 L -16.439,24.484 c -0.764,-1.54 -1.53,-2.232 -3.44,-2.232 l -3.517,0 c -1.913,0 -2.676,0.692 -3.442,2.232 l -10.933,22.791 c -0.077,0.155 -0.077,0.155 -0.153,0.155 C -38,47.43 -38,47.353 -38,47.198 L -38,1.54 C -38,0.693 -38.689,0 -39.53,0 l -3.747,0 c -0.841,0 -1.529,0.693 -1.529,1.54 l 0,53.435 c 0,1.232 0.994,2.233 2.218,2.233 l 4.969,0 c 1.377,0 1.988,-0.308 2.447,-1.309 l 12.617,-26.41 c 0.305,-0.692 0.535,-0.846 0.916,-0.846 0.383,0 0.612,0.154 0.918,0.846 l 12.617,26.41 c 0.458,1.001 1.071,1.309 2.446,1.309 l 4.97,0 c 1.223,0 2.217,-1.001 2.217,-2.233 l 0,-53.435 C 1.529,0.693 0.842,0 0,0" style="fill:#b4b3b4;fill-opacity:1;fill-rule:nonzero;stroke:none" id="path112"/></g><g id="g114" transform="translate(394.2754,278.4629)"><path d="m 0,0 c -2.906,-0.308 -10.398,-0.385 -14.91,-0.385 -10.705,0 -16.287,4.081 -16.287,14.322 l 0,29.643 c 0,10.24 5.582,14.321 16.287,14.321 4.512,0 11.699,-0.154 14.91,-0.462 0.459,-0.077 0.764,-0.616 0.764,-1.078 l 0,-3.849 c 0,-0.539 -0.305,-0.924 -0.84,-0.924 l -14.758,0 c -8.105,0 -9.404,-2.156 -9.404,-8.008 l 0,-10.702 23.472,0 c 0.842,0 1.53,-0.693 1.53,-1.54 l 0,-2.926 c 0,-0.848 -0.688,-1.54 -1.53,-1.54 l -23.472,0 0,-12.935 c 0,-5.852 1.299,-8.008 9.404,-8.008 l 14.758,0 c 0.535,0 0.84,-0.385 0.84,-0.924 l 0,-3.927 C 0.764,0.616 0.459,0.077 0,0" style="fill:#b4b3b4;fill-opacity:1;fill-rule:nonzero;stroke:none" id="path116"/></g></g></g><path d="m 351.072,562.122 -1.105,0 0,-5.544 1.105,0 0,5.544 z" style="fill:#ffffff;fill-opacity:1;fill-rule:nonzero;stroke:none" id="path118"/><path d="m 348.666,562.122 -1.773,0 0,-5.544 1.773,0 0,5.544 z" style="fill:#ffffff;fill-opacity:1;fill-rule:nonzero;stroke:none" id="path120"/><path d="m 345.651,562.122 -3.43,0 0,-5.544 3.43,0 0,5.544 z" style="fill:#ffffff;fill-opacity:1;fill-rule:nonzero;stroke:none" id="path122"/><g id="g124"><g id="g126" clip-path="url(#clipPath128)"><g id="g132" transform="translate(421.4434,544.5513)"><path d="m 0,0 c 1.026,0 1.858,-0.832 1.858,-1.858 0,-1.026 -0.832,-1.858 -1.858,-1.858 -1.025,0 -1.857,0.832 -1.857,1.858 C -1.857,-0.832 -1.025,0 0,0 m 11.418,-50.208 c 1.026,0 1.858,-0.832 1.858,-1.858 0,-1.026 -0.832,-1.858 -1.858,-1.858 -1.025,0 -1.857,0.832 -1.857,1.858 0,1.026 0.832,1.858 1.857,1.858 m 10.874,-9.417 c 1.026,0 1.858,-0.832 1.858,-1.858 0,-1.026 -0.832,-1.858 -1.858,-1.858 -1.025,0 -1.857,0.832 -1.857,1.858 0,1.026 0.832,1.858 1.857,1.858 m -36.208,-8.396 c 1.026,0 1.858,-0.832 1.858,-1.858 0,-1.026 -0.832,-1.858 -1.858,-1.858 -1.025,0 -1.857,0.832 -1.857,1.858 0,1.026 0.832,1.858 1.857,1.858 m -38.787,-29.213 c 1.026,0 1.858,-0.832 1.858,-1.858 0,-1.027 -0.832,-1.859 -1.858,-1.859 -1.026,0 -1.858,0.832 -1.858,1.859 0,1.026 0.832,1.858 1.858,1.858 m 26.953,-21.141 c 1.026,0 1.858,-0.832 1.858,-1.858 0,-1.026 -0.832,-1.858 -1.858,-1.858 -1.025,0 -1.857,0.832 -1.857,1.858 0,1.026 0.832,1.858 1.857,1.858 m 9.031,-10.875 c 1.027,0 1.859,-0.833 1.859,-1.858 0,-1.026 -0.832,-1.858 -1.859,-1.858 -1.025,0 -1.857,0.832 -1.857,1.858 0,1.025 0.832,1.858 1.857,1.858 M 7.188,72.604 c 1.026,0 1.858,-0.832 1.858,-1.858 0,-1.026 -0.832,-1.858 -1.858,-1.858 -1.026,0 -1.858,0.832 -1.858,1.858 0,1.026 0.832,1.858 1.858,1.858 M 24.25,64.505 c 1.026,0 1.858,-0.832 1.858,-1.858 0,-1.026 -0.832,-1.858 -1.858,-1.858 -1.025,0 -1.857,0.832 -1.857,1.858 0,1.026 0.832,1.858 1.857,1.858 m -3.531,-3.047 c 0.499,-1.48 1.883,-2.554 3.531,-2.554 2.067,0 3.743,1.676 3.743,3.743 0,2.067 -1.676,3.743 -3.743,3.743 -1.603,0 -2.96,-1.014 -3.493,-2.431 l -18.45,0 3.328,3.391 c 0.474,-0.218 0.997,-0.347 1.553,-0.347 2.067,0 3.743,1.676 3.743,3.743 0,2.067 -1.676,3.743 -3.743,3.743 -2.067,0 -3.743,-1.676 -3.743,-3.743 0,-0.791 0.249,-1.523 0.668,-2.127 l -4.65,-4.66 -190.584,0 -6.489,0 0,-256.715 6.489,0 51.769,0 1.197,0 c 0,0 -6.143,18.821 -6.536,29.299 -0.476,12.704 1.775,22.441 2.977,27.572 l -49.407,0 0,13.296 95.067,0 0,5.537 -95.067,0 0,22.126 102.678,0 37.747,-37.141 30.375,0 c 0.425,-1.599 1.87,-2.783 3.602,-2.783 2.068,0 3.743,1.676 3.743,3.742 0,2.066 -1.675,3.742 -3.743,3.742 -1.831,0 -3.349,-1.317 -3.673,-3.054 l -14.018,0 6.804,6.956 c 0.549,-0.316 1.177,-0.511 1.856,-0.511 2.067,0 3.743,1.675 3.743,3.742 0,2.067 -1.676,3.743 -3.743,3.743 -2.066,0 -3.742,-1.676 -3.742,-3.743 0,-0.736 0.221,-1.418 0.588,-1.997 l -8.131,-8.19 -12.982,0 -37.833,37.181 -103.271,0.016 0,28.368 102.836,0 32.42,-32.23 0.027,0.026 c -0.381,-0.586 -0.607,-1.282 -0.607,-2.033 0,-2.067 1.675,-3.743 3.742,-3.743 2.067,0 3.743,1.676 3.743,3.743 0,2.067 -1.676,3.742 -3.743,3.742 -0.818,0 -1.569,-0.27 -2.185,-0.715 l -32.805,32.599 -103.428,0 0,2.188 109.65,0 0,5.576 -109.65,0 0,13.632 132.881,0 20.953,-20.632 13.516,0 6.259,-6.196 c -0.086,-0.314 -0.146,-0.639 -0.146,-0.981 0,-2.067 1.676,-3.743 3.742,-3.743 2.067,0 3.743,1.676 3.743,3.743 0,2.067 -1.676,3.743 -3.743,3.743 -0.898,0 -1.712,-0.33 -2.357,-0.859 l -4.373,4.303 39.417,-0.01 c 0.506,-1.465 1.884,-2.524 3.521,-2.524 2.067,0 3.743,1.676 3.743,3.743 0,2.067 -1.676,3.743 -3.743,3.743 -1.679,0 -3.082,-1.113 -3.557,-2.636 l -12.522,0.012 4.243,4.688 -0.02,0.014 c 0.314,-0.086 0.639,-0.147 0.982,-0.147 2.067,0 3.743,1.676 3.743,3.743 0,2.067 -1.676,3.743 -3.743,3.743 -2.066,0 -3.742,-1.676 -3.742,-3.743 0,-0.934 0.354,-1.776 0.919,-2.432 l -5.413,-5.85 -38.922,-0.024 -20.833,20.237 -134.548,0 0,18.592 160.657,0 18.912,18.818 7.921,0 c 0.393,-1.647 1.864,-2.876 3.631,-2.876 2.067,0 3.743,1.676 3.743,3.743 0,2.067 -1.676,3.743 -3.743,3.743 -1.681,0 -3.086,-1.116 -3.559,-2.642 l -9.325,0 -18.499,-18.47 -89.153,-0.021 0,4.905 -70.585,0 0,26.369 110.027,0 0,5.544 -110.027,0 0,43.888 211.84,0 z" style="fill:#ffffff;fill-opacity:1;fill-rule:nonzero;stroke:none" id="path134"/></g></g></g><g id="g136"><g id="g138" clip-path="url(#clipPath140)"><g id="g144" transform="translate(413.792,521.6587)"><path d="m 0,0 c 5.096,0 9.227,-4.131 9.227,-9.227 0,-5.096 -4.131,-9.227 -9.227,-9.227 -5.097,0 -9.228,4.131 -9.228,9.227 C -9.228,-4.131 -5.097,0 0,0 m -48.823,-35.363 c 3.52,0 6.375,-2.854 6.375,-6.375 0,-3.521 -2.855,-6.375 -6.375,-6.375 -3.521,0 -6.375,2.854 -6.375,6.375 0,3.521 2.854,6.375 6.375,6.375 m 17.651,-47.736 c 2.506,0 4.536,-2.03 4.536,-4.536 0,-2.505 -2.03,-4.536 -4.536,-4.536 -2.505,0 -4.536,2.031 -4.536,4.536 0,2.506 2.031,4.536 4.536,4.536 m -30.131,-21.09 c 1.025,0 1.855,-0.83 1.855,-1.854 0,-1.025 -0.83,-1.855 -1.855,-1.855 -1.024,0 -1.854,0.83 -1.854,1.855 0,1.024 0.83,1.854 1.854,1.854 m -145.489,-28.782 c -2.491,3.373 -6.792,8.538 -6.792,8.538 l 2.261,1.071 -2.438,3.547 -2.656,3.781 c 5.045,1.033 8.858,1.334 9.341,1.334 l 6.134,0.092 c -0.339,-15.829 -0.356,-15.16 0.179,-25.614 0.028,-0.53 0.053,-1.029 0.078,-1.514 -1.765,3.007 -3.737,5.556 -6.107,8.765 m 77.891,232.844 c 0,1.285 1.041,2.325 2.326,2.325 1.284,0 2.325,-1.04 2.325,-2.325 0,-1.285 -1.041,-2.326 -2.325,-2.326 -1.285,0 -2.326,1.041 -2.326,2.326 m 73.312,3.222 c 1.066,0 1.93,-0.864 1.93,-1.929 0,-1.066 -0.864,-1.93 -1.93,-1.93 -1.065,0 -1.93,0.864 -1.93,1.93 0,1.065 0.865,1.929 1.93,1.929 m 41.344,3.971 c 1.073,0 1.944,-0.871 1.944,-1.944 0,-1.075 -0.871,-1.945 -1.944,-1.945 -1.074,0 -1.944,0.87 -1.944,1.945 0,1.073 0.87,1.944 1.944,1.944 m 6.744,-36.903 c 3.067,0 5.553,-2.486 5.553,-5.553 0,-3.067 -2.486,-5.553 -5.553,-5.553 -3.066,0 -5.553,2.486 -5.553,5.553 0,3.067 2.487,5.553 5.553,5.553 m -54.228,-3.189 c 1.095,0 1.984,-0.889 1.984,-1.984 0,-1.096 -0.889,-1.985 -1.984,-1.985 -1.096,0 -1.985,0.889 -1.985,1.985 0,1.095 0.889,1.984 1.985,1.984 m 17.728,-10.299 c 3.083,0 5.583,-2.499 5.583,-5.583 0,-3.083 -2.5,-5.583 -5.583,-5.583 -3.084,0 -5.583,2.5 -5.583,5.583 0,3.084 2.499,5.583 5.583,5.583 M 17.078,43.488 c 3.039,0 5.503,-2.463 5.503,-5.502 0,-3.039 -2.464,-5.503 -5.503,-5.503 -3.039,0 -5.502,2.464 -5.502,5.503 0,3.039 2.463,5.502 5.502,5.502 m -115.366,-29.689 65.699,0 19.75,21.136 19.853,-0.013 c 1.312,-4.316 5.32,-7.457 10.064,-7.457 5.812,0 10.522,4.71 10.522,10.521 0,5.81 -4.71,10.521 -10.522,10.521 -4.771,0 -8.794,-3.178 -10.083,-7.531 l -22.383,-0.011 -20.366,-20.933 -81.829,0 0,3.93 32.753,-0.057 0,5.535 -44.514,0 0,5.505 -17.537,-0.023 0,5.541 42.003,0 0,7.69 50.76,0 c 1.273,-4.39 5.317,-7.603 10.117,-7.603 5.822,0 10.542,4.72 10.542,10.542 0,5.822 -4.72,10.542 -10.542,10.542 -4.82,0 -8.877,-3.24 -10.132,-7.659 l -15.597,0 -62.999,0 0,4.105 15.394,0 0,5.971 52.168,0 0,0.077 c 0.387,-1.544 1.773,-2.693 3.438,-2.693 1.962,0 3.554,1.592 3.554,3.555 0,1.963 -1.592,3.554 -3.554,3.554 -1.699,0 -3.115,-1.193 -3.467,-2.786 l -79.144,-0.015 0,6.287 123,0 3.742,-3.211 c -0.541,-1.296 -0.841,-2.716 -0.841,-4.209 0,-6.041 4.896,-10.938 10.937,-10.938 6.042,0 10.939,4.897 10.939,10.938 0,6.041 -4.897,10.938 -10.939,10.938 -2.517,0 -4.827,-0.858 -6.676,-2.287 l -5.796,5.024 -107.255,0 0.01,6.066 -49.37,0 0,6.538 151.508,0 9.543,10.595 c 0.406,-0.145 0.837,-0.238 1.293,-0.238 2.14,0 3.875,1.735 3.875,3.875 0,2.14 -1.735,3.875 -3.875,3.875 -2.14,0 -3.875,-1.735 -3.875,-3.875 0,-0.668 0.184,-1.287 0.482,-1.835 -0.622,-1.005 -8.404,-9.226 -8.404,-9.226 l -34.734,0 3.558,3.777 c 0.494,-0.242 1.042,-0.39 1.629,-0.39 2.054,0 3.719,1.665 3.719,3.719 0,2.053 -1.665,3.718 -3.719,3.718 -2.054,0 -3.719,-1.665 -3.719,-3.718 0,-0.752 0.227,-1.448 0.611,-2.033 l -4.751,-5.073 -62.188,0 0,1.936 c 1.754,0.424 3.06,1.993 3.06,3.877 0,2.209 -1.791,4 -4,4 -2.209,0 -4,-1.791 -4,-4 0,-1.886 1.309,-3.456 3.065,-3.879 l 0,-1.934 -49.107,0 c 0,0 -8.636,-0.02 -19.808,-2.72 -6.857,-1.657 -15.721,-4.573 -30.782,-14.494 -11.529,-7.596 -17.295,-13.821 -22.422,-21.677 -6.68,-10.237 -10.038,-18.081 -12.568,-29.774 -3.268,-15.106 -1.328,-24.33 -1.931,-30.388 -0.784,-7.883 -6.943,-14.04 -15.322,-23.925 -8.379,-9.886 -8.72,-10.831 -9.126,-11.471 -0.541,-0.853 -1.521,-2.744 -1.382,-5.481 0.072,-1.429 0.563,-2.505 2.066,-3.77 1.861,-1.568 5.153,-3.151 6.566,-4.152 1.573,-1.116 3.127,-2.04 2.458,-4.663 -0.689,-2.697 -3.394,-8.567 -3.81,-9.603 -0.252,-0.628 -0.117,-2.066 0.891,-3.852 1.017,-1.801 1.746,-2.7 4.897,-5.363 3.046,-2.573 3.599,-2.895 3.599,-2.895 0,0 -2.87,-0.837 -3.686,-1.67 -0.814,-0.834 -1.615,-1.878 -1.847,-4.26 -0.233,-2.382 0.296,-4.114 1.769,-6.416 1.439,-2.247 1.793,-2.687 2.154,-4.304 0.536,-2.402 0.303,-2.977 0.455,-6.181 0.175,-3.706 0.748,-7.754 1.795,-10.851 1.048,-3.097 3.316,-7.983 6.73,-10.285 3.7,-2.496 6.45,-3.647 13.382,-3.157 5.602,0.396 17.267,5.365 24.366,7.824 l 6.318,-8.24 2.783,1.268 c 5.831,-6.865 14.537,-19.388 17.582,-25.893 1.869,-3.994 3.048,-6.865 3.79,-8.918 0.36,-1.442 0.771,-3.06 1.239,-4.89 l 0,-0.001 c 0.062,-0.384 0.127,-0.614 0.192,-0.751 0.259,-1.011 0.535,-2.37 0.83,-3.517 l 46.615,0 21.939,0 -1.825,9.291 -17.601,0 c -0.718,2.828 -1.487,5.902 -2.183,9.59 l 16.502,0 -1.562,9.909 -16.43,0 c -0.067,0.564 -0.131,1.13 -0.191,1.701 -0.303,2.88 -0.418,5.747 -0.419,8.492 l 17.694,0 0.972,8.825 -18.321,0 c 0.269,3.688 0.617,6.85 0.766,8.865 l 18.992,0 2.351,7.882 16.701,0 0,16.473 31.453,0 15.089,-14.808 c -0.289,-0.558 -0.467,-1.182 -0.467,-1.853 0,-2.245 1.819,-4.063 4.062,-4.063 2.243,0 4.063,1.818 4.063,4.063 0,2.244 -1.82,4.062 -4.063,4.062 -0.708,0 -1.364,-0.197 -1.943,-0.516 l -15.986,15.678 -48.36,0 0,3.327 35.133,0 0,3.167 -20.678,0 0,3.284 -20.286,0 0,5.009 -20.854,0 0,1.694 42.412,0 0,5.826 29.457,0 0,3.519 -56.784,0 0,2.588 58.248,0 30.797,-31.541 10.463,0 c 1.017,-3.753 4.437,-6.517 8.512,-6.517 4.876,0 8.828,3.953 8.828,8.828 0,4.875 -3.952,8.828 -8.828,8.828 -4.021,0 -7.408,-2.692 -8.474,-6.369 -0.782,-0.022 -8.48,0.003 -8.48,0.003 l -30.52,31.296 -42.505,0 0,3.283 25.158,0 0,4.287 -17.461,0 0,4.344 -33.958,0.004 0,1.384 45.655,0.001 0.015,7.765 37.138,0 4.691,-3.535 c -0.795,-1.631 -1.254,-3.457 -1.254,-5.394 0,-6.817 5.526,-12.344 12.344,-12.344 6.817,0 12.344,5.527 12.344,12.344 0,6.818 -5.527,12.344 -12.344,12.344 -2.788,0 -5.351,-0.935 -7.417,-2.494 l -6.036,4.637 -35.416,0 0,8.084 -76.74,0 0,1.167 25.54,0 0,4.334 131.939,0 C -14.985,-21.2 -8.152,-26.769 0,-26.769 c 9.688,0 17.541,7.854 17.541,17.542 0,9.688 -7.853,17.541 -17.541,17.541 -8.067,0 -14.846,-5.453 -16.894,-12.869 l -97.125,0 0,6.047 -23.81,-0.142 -17.309,0.142 -0.005,6.847 56.855,0 0,5.46 z" style="fill:#b4b3b4;fill-opacity:1;fill-rule:nonzero;stroke:none" id="path146"/></g></g></g></g></svg>